Coordinates
version=1
nRows=16
nColumns=36
inDegrees=yes

Units are S.I. units (second, meters, Newtons, ...)
If the header above contains a line with 'inDegrees', this indicates whether rotational values are in degrees (yes) or radians (no).

endheader
time	pelvis_tilt	pelvis_list	pelvis_rotation	pelvis_tx	pelvis_ty	pelvis_tz	hip_flexion_r	hip_adduction_r	hip_rotation_r	knee_angle_r	knee_angle_r_beta	ankle_angle_r	subtalar_angle_r	mtp_angle_r	hip_flexion_l	hip_adduction_l	hip_rotation_l	knee_angle_l	knee_angle_l_beta	ankle_angle_l	subtalar_angle_l	mtp_angle_l	lumbar_extension	lumbar_bending	lumbar_rotation	arm_flex_r	arm_add_r	arm_rot_r	elbow_flex_r	pro_sup_r	arm_flex_l	arm_add_l	arm_rot_l	elbow_flex_l	pro_sup_l
      2.45000000	     -5.31396361	      0.19918338	      5.95976858	      0.61941759	      0.65496742	     -0.04560836	     65.81493567	     -1.80198497	      4.57233588	     96.37536885	      1.68206750	     42.00653432	    -10.34136912	     -7.49999987	     63.07973940	     -1.57134341	      3.14186174	     94.29628717	      1.64578068	     34.81094727	    -18.31191389	     -7.49999987	    -49.68810923	     -4.97858468	      2.95332167	     37.89920929	     -9.24858363	      0.96192306	     38.12090678	     98.72013003	     36.02697377	     -8.89655270	     23.72704623	     24.27859965	     88.72170132
      2.46666670	     -6.67387852	      0.10836780	      5.21351796	      0.62558586	      0.65094827	     -0.04243929	     67.10837886	     -0.51229900	      4.96348873	     96.65061327	      1.68687143	     42.08767963	    -11.25405844	     -7.49999987	     64.57119591	     -2.79188705	      2.55842342	     94.73499271	      1.65343754	     34.95947455	    -17.70302508	     -7.49999987	    -49.42913478	     -5.76124631	      3.26838897	     42.42597119	     -9.21375575	     -1.50237288	     43.04511447	     98.72607868	     41.28906174	    -10.55330722	     24.01337592	     26.02490868	     89.44789229
      2.48333330	     -8.16754214	      0.34720430	      4.89342363	      0.62629316	      0.64529870	     -0.04195510	     68.63093996	      0.31154677	      5.71132083	     96.86430652	      1.69060108	     41.73441876	    -12.47119699	     -7.49999987	     65.89046454	     -3.38379756	      1.96946591	     94.66087443	      1.65214393	     35.96422270	    -16.26158528	     -7.49999987	    -48.24562301	     -6.34705862	      2.18980061	     46.42883198	     -8.84412716	     -2.48580704	     47.10048724	     98.36854773	     45.86555052	    -12.04935102	     23.66854372	     25.88796776	     89.47094688
      2.50000000	     -9.62998358	      0.31593541	      4.47118815	      0.62752249	      0.64300687	     -0.04231302	     69.78837780	      1.59006025	      6.57710427	     96.47235685	      1.68376026	     41.41450778	    -13.97827661	     -7.49999987	     67.20774449	     -4.01804387	      1.54050866	     94.43082889	      1.64812888	     35.27546092	    -16.91496496	     -7.49999987	    -46.34647286	     -7.00849311	      2.61094422	     48.33644782	     -9.47059352	     -5.69347436	     51.73493285	     96.70296700	     50.20300325	    -12.10019810	     22.54775875	     25.30079192	     88.50932529
      2.51666670	    -10.99431796	      0.41830403	      4.28104691	      0.62434308	      0.64782761	     -0.04588854	     70.69221361	      1.98716796	      7.36925229	     95.39150207	      1.66489579	     40.86127131	    -14.72604704	     -7.49999987	     68.30069967	     -4.29649413	      0.84966737	     93.85961729	      1.63815936	     35.30066813	    -16.63433011	     -7.49999987	    -44.25529290	     -7.16904271	      1.69442356	     51.63294782	    -10.58002869	     -5.77017158	     53.22111109	     96.57513304	     54.59569766	    -13.30842798	     22.27347851	     25.31962739	     88.51078940
      2.53333330	    -12.22525048	      0.69666635	      3.94388454	      0.63628779	      0.65093607	     -0.04589263	     70.55584062	      2.46537633	      8.34470947	     93.92102458	      1.63923112	     40.98239391	    -15.88321774	     -7.49999987	     68.33336704	     -4.79303542	     -0.24191442	     92.72019399	      1.61827267	     35.27100845	    -16.68175631	     -7.49999987	    -40.96404310	     -7.80678006	      1.23184109	     51.56601427	    -12.03100045	     -6.81948658	     56.32978902	     96.37493931	     56.19501928	    -14.22625355	     21.31470012	     25.46418780	     88.55519565
      2.55000000	    -13.30520324	      0.73421626	      4.20459928	      0.63802080	      0.66110529	     -0.04034469	     69.95315735	      2.50434540	      8.46665728	     91.71354620	      1.60070335	     40.85095261	    -16.70765741	     -7.49999987	     67.79509119	     -5.12565511	     -0.90710528	     90.79546527	      1.58467981	     35.25908122	    -16.34174533	     -7.49999987	    -38.33641998	     -7.91573560	      0.46801712	     54.24455303	    -14.14919878	     -7.48294367	     57.59364120	     95.02216213	     58.45260711	    -16.08708898	     20.77057705	     26.58291869	     87.53567669
      2.56666670	    -14.20265793	      1.83090462	      4.10822904	      0.64494514	      0.66306426	     -0.04248500	     70.12224009	      2.82769198	     10.27001259	     91.31093230	      1.59367641	     40.07639413	    -18.74148773	     -7.49999987	     66.98827633	     -5.36593487	     -2.94917369	     89.21692669	      1.55712912	     36.03429787	    -14.77880748	     -7.49999987	    -35.04537477	     -9.48486805	     -0.34308830	     55.13026532	    -16.23103266	     -6.69301822	     58.83756770	     95.03668389	     61.49772738	    -17.55986296	     20.49335291	     25.67164692	     87.82053942
      2.58333330	    -14.82003447	      2.00123543	      4.39356386	      0.65243949	      0.67531477	     -0.04084269	     69.18660332	      3.33334407	     10.98454472	     89.76939276	      1.56677147	     39.08611714	    -20.78443034	     -7.49999987	     65.39785961	     -5.66636240	     -3.86956982	     86.62100527	      1.51182174	     36.01484169	    -13.49972444	     -7.49999987	    -31.33233341	    -10.23618314	      0.04842770	     56.79047019	    -20.09014585	     -5.23429670	     58.23957162	     93.60659968	     64.45219920	    -18.31012004	     20.08272143	     26.00678299	     87.16350103
      2.60000000	    -15.27677192	      1.80384435	      5.04730132	      0.65326281	      0.69111501	     -0.04150058	     67.49426642	      3.41521510	     11.26285353	     87.34986275	      1.52454271	     37.82428603	    -22.06004293	     -7.49999987	     63.73448211	     -5.41711860	     -4.11412228	     83.42078008	      1.45596728	     35.01343737	    -13.10563272	     -7.49999987	    -28.60371409	    -10.09966806	     -0.18668327	     58.99874258	    -23.65931210	     -1.94980018	     55.80738148	     93.35409857	     68.73947832	    -19.51397390	     26.53179946	     22.33995604	     89.65304071
      2.61666670	    -15.55367505	      1.36282385	      5.95890805	      0.66119566	      0.70180950	     -0.04575526	     66.05641667	      2.96552516	     11.02886177	     85.24808569	      1.48785978	     36.50561920	    -23.28704614	     -7.49999987	     61.91080122	     -5.11230105	     -4.07434815	     80.37506783	      1.40280957	     34.48494882	    -12.38304521	     -7.49999987	    -25.45420912	     -9.72116473	     -0.18824736	     60.13760304	    -26.90179299	     -0.99386115	     54.37912272	     93.21136200	     71.39276560	    -19.90685880	     26.78084200	     22.76948757	     89.46289019
      2.63333330	    -15.46673289	      0.57816893	      6.10649003	      0.68651349	      0.72544992	     -0.05503046	     62.04523172	      2.91308314	     10.72467797	     80.86931348	      1.41143578	     35.20611675	    -24.03183474	     -7.49999987	     58.43607597	     -5.26182261	     -4.21993607	     76.25258411	      1.33085866	     32.75915622	    -12.37238883	     -7.49999987	    -21.41309271	     -8.50516457	     -0.08037885	     58.04883362	    -28.60107413	      2.62283211	     55.15097258	     89.82948884	     69.71194001	    -20.73255408	     27.28936231	     22.11397149	     86.23017967
      2.65000000	    -15.32889248	      0.20533649	      6.16004603	      0.69755535	      0.74910777	     -0.06083031	     57.55167127	      2.33144902	     10.51900518	     75.60872122	      1.31962113	     33.21292896	    -24.42758975	     -7.49999987	     54.08624846	     -5.17898256	     -4.89141129	     71.23394625	      1.24326690	     31.22093162	    -12.09416852	     -7.49999987	    -17.52323424	     -7.71963752	      0.65511037	     55.77989307	    -30.49638166	      4.41636556	     54.61130756	     88.97754896	     67.31919221	    -20.70255886	     27.06042193	     22.06119825	     85.22229956
      2.66666670	    -14.67056703	     -0.33387028	      5.86862499	      0.70543345	      0.77883728	     -0.06626459	     52.55285470	      1.88128317	     10.01907709	     69.31928815	      1.20984981	     30.82134706	    -24.07517490	     -7.49999987	     49.61164523	     -5.17446655	     -5.41787874	     66.19253966	      1.15527776	     27.81926510	    -13.52384218	     -7.49999987	    -14.25166005	     -6.61106345	      1.24109838	     52.47435318	    -30.79604527	      6.81041028	     51.79673068	     88.86696712	     64.26625922	    -20.48915564	     27.41698494	     19.82642393	     84.56884057
      2.68333330	    -14.03106973	     -0.85514894	      6.30906724	      0.71226570	      0.81004961	     -0.07027698	     47.09586863	      0.97759636	      8.90349262	     62.10918705	      1.08400981	     27.81269214	    -23.82705986	     -7.49999987	     44.78060811	     -4.75941518	     -5.73939925	     59.69578649	      1.04188802	     24.15202451	    -13.56610181	     -7.49999987	    -11.63881440	     -5.36175850	      1.91617967	     49.17494007	    -31.06082432	      7.64269541	     47.29751522	     89.48636159	     60.93587503	    -19.17143398	     28.67677125	     16.85512753	     84.75153615
      2.70000000	    -13.06277224	     -1.33587553	      6.77041212	      0.73107857	      0.84860775	     -0.07549205	     40.77881273	      0.14833836	      7.51728669	     53.96351738	      0.94184105	     23.46459571	    -23.59734312	     -7.49999987	     39.27974486	     -4.19687817	     -5.83863100	     52.52762627	      0.91678003	     19.15997905	    -13.39093478	     -7.49999987	     -9.29338104	     -4.13742092	      2.60329360	     43.48194681	    -30.16369285	      5.74731834	     42.70734807	     94.27105910	     55.44478533	    -18.25679613	     32.61340664	     14.26685609	     85.72551530
